<?xml version="1.0" encoding="UTF-8" standalone="no"?>
<!-- Created with Inkscape (http://www.inkscape.org/) -->

<svg
   xmlns:dc="http://purl.org/dc/elements/1.1/"
   xmlns:cc="http://creativecommons.org/ns#"
   xmlns:rdf="http://www.w3.org/1999/02/22-rdf-syntax-ns#"
   xmlns:svg="http://www.w3.org/2000/svg"
   xmlns="http://www.w3.org/2000/svg"
   xmlns:sodipodi="http://sodipodi.sourceforge.net/DTD/sodipodi-0.dtd"
   xmlns:inkscape="http://www.inkscape.org/namespaces/inkscape"
   width="165.60921"
   height="160.80872"
   id="svg11546"
   version="1.1"
   inkscape:version="0.48.5 r10040"
   sodipodi:docname="diacollo-logo-key-greyb3-a66.svg">
  <defs
     id="defs11548" />
  <sodipodi:namedview
     id="base"
     pagecolor="#8d8d8d"
     bordercolor="#666666"
     borderopacity="1.0"
     inkscape:pageopacity="0"
     inkscape:pageshadow="2"
     inkscape:zoom="1.979899"
     inkscape:cx="79.397231"
     inkscape:cy="43.712568"
     inkscape:document-units="px"
     inkscape:current-layer="g7658"
     showgrid="false"
     fit-margin-top="10"
     fit-margin-left="10"
     fit-margin-right="10"
     fit-margin-bottom="10"
     inkscape:window-width="899"
     inkscape:window-height="643"
     inkscape:window-x="311"
     inkscape:window-y="213"
     inkscape:window-maximized="0" />
  <metadata
     id="metadata11551">
    <rdf:RDF>
      <cc:Work
         rdf:about="">
        <dc:format>image/svg+xml</dc:format>
        <dc:type
           rdf:resource="http://purl.org/dc/dcmitype/StillImage" />
        <dc:title></dc:title>
      </cc:Work>
    </rdf:RDF>
  </metadata>
  <g
     inkscape:label="Layer 1"
     inkscape:groupmode="layer"
     id="layer1"
     transform="translate(-253.52932,-484.82555)">
    <g
       style="display:inline"
       id="g7658"
       transform="translate(-651.32212,-548.39857)">
      <path
         inkscape:connector-curvature="0"
         id="path7610"
         d="m 921.78894,1043.2241 c -3.82396,0 -6.9375,3.1136 -6.9375,6.9375 l 0,126.9375 c 0,3.824 3.11354,6.9375 6.9375,6.9375 l 131.74996,0 c 3.824,0 6.9063,-3.1135 6.9063,-6.9375 l 0,-126.9375 c 0,-3.8239 -3.0823,-6.9375 -6.9063,-6.9375 l -131.74996,0 z m -0.1875,3.625 132.56246,0 0,109.0938 c 0,3.8239 -6.9062,6.9062 -6.9062,6.9062 -23.2975,8.3828 -59.02023,20.7465 -118.71876,0 -6.0411,-2.0976 -6.9375,-3.0823 -6.9375,-6.9062 l 0,-109.0938 z"
         style="fill:#b3b3b3;fill-opacity:0.50196081;display:inline" />
      <path
         style="fill:#ffffff;fill-opacity:1;display:inline"
         d="m 921.60144,1046.8491 132.56246,0 0,109.0938 c 0,3.8239 -6.9062,6.9062 -6.9062,6.9062 -23.2975,8.3828 -59.02023,20.7465 -118.71876,0 -6.0411,-2.0976 -6.9375,-3.0823 -6.9375,-6.9062 z"
         id="path2988"
         inkscape:connector-curvature="0"
         sodipodi:nodetypes="ccsccsc" />
      <path
         style="color:#000000;fill:#b3b3b3;fill-opacity:1;fill-rule:evenodd;stroke:none;stroke-width:3.10889316000000004;marker:none;visibility:visible;display:inline;overflow:visible;enable-background:accumulate"
         d="m 947.87169,1049.2737 c -25.8872,28.4159 -13.06756,65.5502 7.70116,87.7321 l 0,-53.5362 c -6.7551,-5.9969 -11.54232,-16.374 -7.70116,-34.1959 z m 80.51221,0 c 3.8701,21.3234 -5.7738,32.5245 -15.0742,37.8495 2.407,1.4226 4.6303,3.1061 6.651,5.0758 3.7623,3.6191 6.5519,7.7846 8.3794,12.5144 1.8274,4.7298 2.7347,10.0966 2.7348,16.0806 0,1.8804 -0.086,3.6916 -0.2625,5.4477 13.0588,-22.0221 17.2799,-52.2941 -2.4285,-76.968 z"
         id="path7630"
         inkscape:connector-curvature="0" />
      <text
         sodipodi:linespacing="125%"
         id="text7632"
         y="1157.6216"
         x="949.48761"
         style="font-size:100.81528473000000190px;font-style:normal;font-variant:normal;font-weight:bold;font-stretch:normal;text-align:start;line-height:125%;letter-spacing:0px;word-spacing:0px;writing-mode:lr-tb;text-anchor:start;fill:#b3b3b3;fill-opacity:1;stroke:none;display:inline;font-family:Bitstream Vera Sans;-inkscape-font-specification:Bitstream Vera Sans Bold"
         xml:space="preserve"><tspan
           y="1157.6216"
           x="949.48761"
           id="tspan7634"
           sodipodi:role="line">D</tspan></text>
    </g>
  </g>
</svg>
