<?xml version="1.0" encoding="UTF-8" standalone="no"?>
<!-- Created with Inkscape (http://www.inkscape.org/) -->

<svg
   xmlns:dc="http://purl.org/dc/elements/1.1/"
   xmlns:cc="http://creativecommons.org/ns#"
   xmlns:rdf="http://www.w3.org/1999/02/22-rdf-syntax-ns#"
   xmlns:svg="http://www.w3.org/2000/svg"
   xmlns="http://www.w3.org/2000/svg"
   xmlns:sodipodi="http://sodipodi.sourceforge.net/DTD/sodipodi-0.dtd"
   xmlns:inkscape="http://www.inkscape.org/namespaces/inkscape"
   width="1101.4246"
   height="426.69714"
   id="svg8328"
   version="1.1"
   inkscape:version="0.48.5 r10040"
   sodipodi:docname="New document 47">
  <defs
     id="defs8330" />
  <sodipodi:namedview
     id="base"
     pagecolor="#ffffff"
     bordercolor="#666666"
     borderopacity="1.0"
     inkscape:pageopacity="0.0"
     inkscape:pageshadow="2"
     inkscape:zoom="0.24748737"
     inkscape:cx="397.61598"
     inkscape:cy="-116.81853"
     inkscape:document-units="px"
     inkscape:current-layer="layer1"
     showgrid="false"
     fit-margin-top="20"
     fit-margin-left="20"
     fit-margin-right="20"
     fit-margin-bottom="20"
     inkscape:window-width="630"
     inkscape:window-height="618"
     inkscape:window-x="554"
     inkscape:window-y="236"
     inkscape:window-maximized="0" />
  <metadata
     id="metadata8333">
    <rdf:RDF>
      <cc:Work
         rdf:about="">
        <dc:format>image/svg+xml</dc:format>
        <dc:type
           rdf:resource="http://purl.org/dc/dcmitype/StillImage" />
        <dc:title></dc:title>
      </cc:Work>
    </rdf:RDF>
  </metadata>
  <g
     inkscape:label="Layer 1"
     inkscape:groupmode="layer"
     id="layer1"
     transform="translate(148.56941,-95.950851)">
    <path
       style="color:#000000;fill:#000000;fill-opacity:1;fill-rule:evenodd;stroke:#ffffff;stroke-width:1.12669897;stroke-linecap:butt;stroke-linejoin:miter;stroke-miterlimit:4;stroke-opacity:1;stroke-dasharray:none;stroke-dashoffset:0;marker:none;visibility:visible;display:inline;overflow:visible;enable-background:accumulate"
       d="m 22.363593,362.16771 c 31.79143,25.9713 -32.60217,60.5881 -38.68635,65.2674 l -0.0313,-0.5138 c 0.31032,-18.1219 0.0469,-6.0084 0.006,-30.2864 28.84623,-5.3869 48.3024,-13.0818 38.71116,-34.4672 z"
       id="path5082-8-6-2-0-2"
       inkscape:connector-curvature="0"
       sodipodi:nodetypes="cccccc" />
    <path
       style="color:#000000;fill:#000000;fill-opacity:1;fill-rule:evenodd;stroke:none;stroke-width:3.10889316;marker:none;visibility:visible;display:inline;overflow:visible;enable-background:accumulate"
       d="m -100.66316,311.68795 c -64.96377,68.79144 -1.88346,139.78894 41.389983,167.37812 l -0.20332,0.039 c -0.7392,-57.92258 0.24541,73.65276 0.34284,-101.08928 -34.340821,-0.9841 -55.686423,-18.6601 -41.324373,-66.68224 z"
       id="path5082-8-6-2-0-9-2-5-2-9-1"
       inkscape:connector-curvature="0"
       sodipodi:nodetypes="cccccc" />
    <path
       style="color:#000000;fill:#000000;fill-opacity:1;fill-rule:evenodd;stroke:none;stroke-width:3.10889316;marker:none;visibility:visible;display:inline;overflow:visible;enable-background:accumulate"
       d="m 237.93081,342.64798 c 50.6276,63.38294 -40,160.00002 -55,160.00002 -15,0 -116.344519,-98.15168 -59.99999,-160.00002 -10,45.00004 30,60.00004 39.99999,60.00004 10,0 25,0 35,0 10,0 50,-15 40,-60.00004 z"
       id="path5082-8-6-2-0-9-2-5-2-4-2-5"
       inkscape:connector-curvature="0"
       sodipodi:nodetypes="czcccc" />
    <g
       style="display:inline"
       id="g4394"
       transform="translate(89.230701,-417.92311)">
      <path
         sodipodi:nodetypes="czcccc"
         inkscape:connector-curvature="0"
         id="path5082-8-6-2-0-9-2-5-2-4-2-5-2-9-0"
         d="m 352.62925,758.79587 c 50.62761,63.38287 -9.09729,97.10143 -54.09728,97.10143 -45.00001,0 -117.24723,-35.25308 -60.90271,-97.10143 -11.34983,52.65982 29.99999,60 39.99999,60 10.00001,0 25.00001,0 35.00001,0 9.99999,0 48.65017,-12.34018 39.99999,-60 z"
         style="color:#000000;fill:#000000;fill-opacity:1;fill-rule:evenodd;stroke:none;stroke-width:3.10889316;marker:none;visibility:visible;display:inline;overflow:visible;enable-background:accumulate" />
      <g
         transform="translate(309.07236,392.67156)"
         id="g3206-0-8"
         style="display:inline">
        <text
           xml:space="preserve"
           style="font-size:144px;font-style:normal;font-variant:normal;font-weight:bold;font-stretch:normal;text-align:start;line-height:125%;letter-spacing:0px;word-spacing:0px;writing-mode:lr-tb;text-anchor:start;fill:#545454;fill-opacity:1;stroke:#ffffff;stroke-width:5;stroke-miterlimit:4;stroke-opacity:1;stroke-dasharray:none;display:inline;font-family:Bitstream Vera Sans;-inkscape-font-specification:Bitstream Vera Sans Bold"
           x="-69.395607"
           y="523.62433"
           id="text2985-3-3-4-0-3-5-2-7-9-3-4-1-1-6-5-2-7-5-0-6-9-2-0-4-8-6-3"
           sodipodi:linespacing="125%"><tspan
             sodipodi:role="line"
             id="tspan2987-7-4-3-2-1-7-6-2-8-0-4-4-9-2-0-1-5-4-7-3-1-9-2-8-7-32-0"
             x="-69.395607"
             y="523.62433">D</tspan></text>
        <text
           xml:space="preserve"
           style="font-size:144px;font-style:normal;font-variant:normal;font-weight:bold;font-stretch:normal;text-align:start;line-height:125%;letter-spacing:0px;word-spacing:0px;writing-mode:lr-tb;text-anchor:start;fill:#000000;fill-opacity:1;stroke:none;font-family:Bitstream Vera Sans;-inkscape-font-specification:Bitstream Vera Sans Bold"
           x="-69.395607"
           y="523.62433"
           id="text2985-3-3-4-0-3-5-2-7-9-3-4-1-1-6-5-2-7-5-0-6-9-2-0-4-3-6"
           sodipodi:linespacing="125%"><tspan
             sodipodi:role="line"
             id="tspan2987-7-4-3-2-1-7-6-2-8-0-4-4-9-2-0-1-5-4-7-3-1-9-2-8-13-9"
             x="-69.395607"
             y="523.62433">D</tspan></text>
      </g>
      <path
         style="fill:none;stroke:none;display:inline"
         d="m 282.57416,863.83577 0,-29.51121 6.02679,0.10143 c 4.04182,0.068 6.69873,0.19574 8.06697,0.38778 10.74684,1.50837 17.63594,5.92542 21.45375,13.75541 1.97162,4.04363 2.82481,8.01894 2.97569,13.86472 0.10308,3.99406 -0.0798,6.5461 -0.68937,9.61742 -2.07238,10.44244 -8.61686,17.25666 -19.13524,19.92392 -3.72644,0.94496 -5.98134,1.17372 -12.58252,1.27651 l -6.11607,0.0952 0,-29.51121 z"
         id="path4207-0"
         inkscape:connector-curvature="0" />
      <path
         sodipodi:nodetypes="csc"
         inkscape:connector-curvature="0"
         id="path4240-7"
         d="m 281.2884,894.48242 c 34.64286,3.39286 41.62156,-16.06894 41.05348,-32.54332 -0.35714,-10.35714 -4.01523,-31.05348 -41.00117,-29.26777"
         style="fill:#8b8b8b;fill-opacity:1;stroke:none;display:inline" />
    </g>
    <g
       style="display:inline"
       id="g5016"
       transform="translate(-207.75415,-177.5068)">
      <path
         sodipodi:nodetypes="czcccc"
         inkscape:connector-curvature="0"
         id="path5082-8-6-2-0-9-2-5-2-4-2-5-2-5-2-5"
         d="m 874.4813,519.32192 c 50.62761,63.38287 -10,100.00001 -55,100.00001 -45,0 -116.34451,-38.15166 -60,-100.00001 -11.34982,52.65982 30,60 40,60 10,0 25,0 35,0 10,0 48.65018,-12.34018 40,-60 z"
         style="color:#000000;fill:#000000;fill-opacity:1;fill-rule:evenodd;stroke:none;stroke-width:3.10889316;marker:none;visibility:visible;display:inline;overflow:visible;enable-background:accumulate" />
      <text
         sodipodi:linespacing="125%"
         id="text2985-3-3-4-3-3-1"
         y="672.9165"
         x="759.92487"
         style="font-size:144px;font-style:normal;font-variant:normal;font-weight:normal;font-stretch:normal;text-align:start;line-height:125%;letter-spacing:0px;word-spacing:0px;writing-mode:lr-tb;text-anchor:start;fill:#757575;fill-opacity:1;stroke:#ffffff;stroke-width:4;stroke-miterlimit:4;stroke-opacity:1;stroke-dasharray:none;display:inline;font-family:URW Bookman L;-inkscape-font-specification:URW Bookman L"
         xml:space="preserve"><tspan
           y="672.9165"
           x="759.92487"
           id="tspan2987-7-4-3-2-27-3"
           sodipodi:role="line">D</tspan></text>
      <text
         sodipodi:linespacing="125%"
         id="text2985-3-3-4-1-6"
         y="672.9165"
         x="759.92487"
         style="font-size:144px;font-style:normal;font-variant:normal;font-weight:normal;font-stretch:normal;text-align:start;line-height:125%;letter-spacing:0px;word-spacing:0px;writing-mode:lr-tb;text-anchor:start;fill:#000000;fill-opacity:1;stroke:none;display:inline;font-family:URW Bookman L;-inkscape-font-specification:URW Bookman L"
         xml:space="preserve"><tspan
           y="672.9165"
           x="759.92487"
           id="tspan2987-7-4-3-4-2"
           sodipodi:role="line">D</tspan></text>
      <path
         style="fill:#8b8b8b;fill-opacity:1;stroke:none;display:inline"
         d="m 793.08275,623.75232 c 34.64286,3.39286 47.8392,1.61942 55.51777,-9.86475 0.35714,-8.57144 -2.87881,-12.8973 -13.37193,-24.70086 -9.36524,-8.37464 -36.63627,-10.01335 -41.55781,-2.7812"
         id="path4240-7-0-9"
         inkscape:connector-curvature="0"
         sodipodi:nodetypes="cccc" />
    </g>
    <g
       style="display:inline"
       id="g5219"
       transform="translate(-11.784562,-276.50175)">
      <path
         sodipodi:nodetypes="czcccc"
         inkscape:connector-curvature="0"
         id="path5082-8-6-2-0-9-2-5-2-4-2-5-2-5-2-5-3-6"
         d="m 928.22078,641.77544 c 50.62761,63.38287 -27.87628,125.57683 -72.87629,125.57683 -45,0 -128.46823,-63.72848 -72.12372,-125.57683 -11.34981,52.65982 45,45 55,45 10,0 25,0 35.00001,0 10,0 63.65018,2.65982 55,-45 z"
         style="color:#000000;fill:#000000;fill-opacity:1;fill-rule:evenodd;stroke:none;stroke-width:3.10889316;marker:none;visibility:visible;display:inline;overflow:visible;enable-background:accumulate" />
      <text
         sodipodi:linespacing="125%"
         id="text2985-3-3-4-3-3-1-8-4"
         y="773.81628"
         x="797.30328"
         style="font-size:144px;font-style:normal;font-variant:normal;font-weight:normal;font-stretch:normal;text-align:start;line-height:125%;letter-spacing:0px;word-spacing:0px;writing-mode:lr-tb;text-anchor:start;fill:#757575;fill-opacity:1;stroke:#ffffff;stroke-width:4;stroke-miterlimit:4;stroke-opacity:1;stroke-dasharray:none;display:inline;font-family:URW Bookman L;-inkscape-font-specification:URW Bookman L"
         xml:space="preserve"><tspan
           y="773.81628"
           x="797.30328"
           id="tspan2987-7-4-3-2-27-3-8-3"
           sodipodi:role="line">D</tspan></text>
      <text
         sodipodi:linespacing="125%"
         id="text2985-3-3-4-1-6-8-3"
         y="773.81628"
         x="797.30328"
         style="font-size:144px;font-style:normal;font-variant:normal;font-weight:normal;font-stretch:normal;text-align:start;line-height:125%;letter-spacing:0px;word-spacing:0px;writing-mode:lr-tb;text-anchor:start;fill:#000000;fill-opacity:1;stroke:none;display:inline;font-family:URW Bookman L;-inkscape-font-specification:URW Bookman L"
         xml:space="preserve"><tspan
           y="773.81628"
           x="797.30328"
           id="tspan2987-7-4-3-4-2-2-1"
           sodipodi:role="line">D</tspan></text>
      <path
         style="fill:#8b8b8b;fill-opacity:1;stroke:none;display:inline"
         d="m 830.44285,762.4068 c 19.34174,8.7675 38.12465,3.01668 46.71849,-7.87677 10.42927,-13.08172 9.70509,-17.54866 10.33284,-27.62084 0.35714,-18.67296 -4.39404,-25.01913 -14.88716,-36.82269 -9.36525,-8.37464 -36.63628,-10.01335 -41.55782,-2.7812"
         id="path4240-7-0-9-2-0"
         inkscape:connector-curvature="0"
         sodipodi:nodetypes="ccccc" />
    </g>
    <path
       inkscape:connector-curvature="0"
       style="color:#000000;fill:#000000;fill-opacity:1;fill-rule:evenodd;stroke:#ffffff;stroke-width:0.62201166;stroke-linecap:butt;stroke-linejoin:miter;stroke-miterlimit:4;stroke-opacity:1;stroke-dasharray:none;stroke-dashoffset:0;marker:none;visibility:visible;display:inline;overflow:visible;enable-background:accumulate"
       d="m 399.57027,144.88747 c 5.93878,10.52631 -6.99991,15.80953 -24.86117,18.46107 5.73166,2.67688 10.34202,7.15697 13.01418,12.66402 l 1.08938,0.25289 c 3.76726,-2.30314 30.44249,-18.59442 10.75761,-31.37798 z"
       id="path5082-0-5"
       sodipodi:nodetypes="ccccc" />
    <path
       style="color:#000000;fill:#000000;fill-opacity:1;fill-rule:evenodd;stroke:#ffffff;stroke-width:0.6220119;stroke-linecap:butt;stroke-linejoin:miter;stroke-miterlimit:4;stroke-opacity:1;stroke-dasharray:none;stroke-dashoffset:0;marker:none;visibility:visible;display:inline;overflow:visible;enable-background:accumulate"
       d="m 292.27385,143.4589 c -19.6849,12.78356 6.99035,29.07485 10.75761,31.37799 l 1.08938,-0.25289 c 2.67216,-5.50705 7.28252,-9.98713 13.01418,-12.66403 -17.86126,-2.65153 -30.79996,-7.93475 -24.86117,-18.46107 z"
       id="path5082-8"
       inkscape:connector-curvature="0"
       sodipodi:nodetypes="ccccc" />
    <path
       style="color:#000000;fill:#000000;fill-opacity:1;fill-rule:evenodd;stroke:#ffffff;stroke-width:1.12669897;stroke-linecap:butt;stroke-linejoin:miter;stroke-miterlimit:4;stroke-opacity:1;stroke-dasharray:none;stroke-dashoffset:0;marker:none;visibility:visible;display:inline;overflow:visible;enable-background:accumulate"
       d="m 213.84786,116.5142 c 31.79144,25.97129 -32.60216,60.58816 -38.68634,65.26739 l -0.0313,-0.5138 c 0.31032,-18.12188 0.0469,-6.00834 0.006,-30.28634 28.84622,-5.38697 48.30239,-13.0818 38.71115,-34.46725 z"
       id="path5082-8-6-2-0-2-4"
       inkscape:connector-curvature="0"
       sodipodi:nodetypes="cccccc" />
    <path
       style="color:#000000;fill:#000000;fill-opacity:1;fill-rule:evenodd;stroke:#ffffff;stroke-width:1.12669897;stroke-linecap:butt;stroke-linejoin:miter;stroke-miterlimit:4;stroke-opacity:1;stroke-dasharray:none;stroke-dashoffset:0;marker:none;visibility:visible;display:inline;overflow:visible;enable-background:accumulate"
       d="m 110.85338,117.22849 c -31.791426,25.97129 32.60217,60.58816 38.68635,65.26739 l 0.0313,-0.5138 c -0.31032,-18.12188 -0.0469,-6.00834 -0.006,-30.28634 -28.84623,-5.38697 -48.3024,-13.0818 -38.71116,-34.46725 z"
       id="path5082-8-6-2-0-9-2"
       inkscape:connector-curvature="0"
       sodipodi:nodetypes="cccccc" />
  </g>
</svg>
