<?xml version="1.0"?><svg width="256" height="134.44788" xmlns="http://www.w3.org/2000/svg">
 <title>Blue Devil horns</title>

 <metadata id="metadata7">image/svg+xml</metadata>
 <g>
  <title>Layer 1</title>
  <g id="layer1">
   <g id="svg_1">
    <path id="path2816" d="m82.393944,18.958687c-12.988884,5.34037 -24.605072,13.763985 -34.486748,23.687042c-7.831116,8.14159 -15.104126,17.639313 -17.356201,28.957832c-1.605408,7.64254 1.133179,16.088562 7.305923,20.967926c0.768738,0.357086 1.449875,-0.812744 0.759872,-1.305077c-5.425537,-4.48243 -7.962234,-11.887711 -6.662613,-18.772942c1.966217,-10.969398 10.017471,-20.480278 17.508118,-28.395592c8.985893,-9.221558 14.33873,-13.468056 25.990067,-18.985878c-7.39949,8.55394 -10.532143,14.858704 -12.62381,26.241211c-1.576622,8.033718 1.354614,16.51226 7.130791,22.219948c3.882927,4.192039 8.890358,7.042549 13.343224,10.540039c0.27803,0.989296 2.02494,1.105576 1.86351,-0.096909c-1.528809,-2.214149 -4.218559,-3.36795 -6.303886,-5.017082c-6.823769,-4.641846 -13.421623,-11.050415 -14.64827,-19.601238c-1.371292,-9.782677 3.417671,-19.091785 8.793343,-26.90604c4.237946,-5.756439 7.608826,-11.736778 14.060539,-15.492157c-2.708305,1.048988 -3.777435,1.543182 -4.673859,1.958916z" stroke-width="8" fill="#000000"/>
    <path id="path2835" d="m46.302795,58.45459c-3.028641,6.691772 -3.655991,14.716904 -0.734909,21.550949c1.259171,2.511787 3.310959,4.580528 5.704422,6.028648c-1.151718,1.45742 -3.580688,0.902046 -5.162537,0.562134c-4.490234,-2.490364 -7.000198,-7.536293 -7.509567,-12.520241c0.177185,-8.622406 1.332443,-9.508919 5.264023,-16.398651c2.425812,-4.226639 8.775269,-11.937088 8.775269,-11.937088c0,0 -5.422836,11.290279 -6.3367,12.714249z" stroke-width="8" fill="#0000ff"/>
    <path d="m173.602798,18.958687c12.988876,5.34037 24.605057,13.763985 34.486832,23.687042c7.831024,8.14159 15.104034,17.639313 17.356094,28.957832c1.605515,7.64254 -1.133163,16.088562 -7.305817,20.967926c-0.768829,0.357086 -1.449966,-0.812744 -0.759979,-1.305077c5.425537,-4.48243 7.96225,-11.887711 6.66272,-18.772942c-1.966309,-10.969398 -10.017563,-20.480278 -17.508209,-28.395592c-8.985901,-9.221558 -14.338745,-13.468056 -25.990067,-18.985878c7.399582,8.55394 10.53215,14.858704 12.62381,26.241211c1.57663,8.033718 -1.354614,16.51226 -7.130783,22.219948c-3.882935,4.192039 -8.890274,7.042549 -13.343155,10.540039c-0.278107,0.989296 -2.025024,1.105576 -1.863495,-0.096909c1.528717,-2.214149 4.21846,-3.36795 6.303879,-5.017082c6.823776,-4.641846 13.421539,-11.050415 14.648178,-19.601238c1.371399,-9.782677 -3.417572,-19.091785 -8.793335,-26.90604c-4.237946,-5.756439 -7.608826,-11.736778 -14.06044,-15.492157c2.708206,1.048988 3.777435,1.543182 4.673767,1.958916z" id="path2858" stroke-width="8" fill="#000000"/>
    <path d="m209.693939,58.45459c3.028717,6.691772 3.656082,14.716904 0.735001,21.550949c-1.259277,2.511787 -3.31105,4.580528 -5.704498,6.028648c1.151703,1.45742 3.580673,0.902046 5.162521,0.562134c4.49025,-2.490364 7.00029,-7.536293 7.509552,-12.520241c-0.177078,-8.622406 -1.332428,-9.508919 -5.263916,-16.398651c-2.425797,-4.226639 -8.775269,-11.937088 -8.775269,-11.937088c0,0 5.422836,11.290279 6.336609,12.714249z" id="path2860" stroke-width="8" fill="#0000ff"/>
   </g>
  </g>
 </g>
</svg>